# xmcd
#
# Track frame offsets:
#	150
#	13997
#	27969
#	43334
#	55028
#	68323
#	83069
#	96663
#	109431
#	122197
#	135725
#	149243
#	161815
#	175893
#	191599
#	207664
#	219950
#	233515
#	247070
#	259671
#	272305
#	284109
#	297404
#	310869
#	323470
#	336804
#
# Disc length: 4638 seconds
#
# Revision: 2
# Processed by: cddbd v1.5.2PL0 Copyright (c) Steve Scherf et al.
# Submitted via: EasyCDDAExtractor 10.0.2.1
#
DISCID=98121c1a
DTITLE=The Carter Family - In The Shadow Of Clinch Mountain - Vol. 05
DYEAR=2001
DGENRE=Bluegrass
TTITLE0=Will My Mother Know Me There
TTITLE1=Faded Flowers
TTITLE2=Poor Little Orphaned Boy
TTITLE3=On A Hill Lone And Gray
TTITLE4=Cowboy Jack
TTITLE5=I'll Be All Smiles Tonight
TTITLE6=Away Out On The Old Saint Sabboth
TTITLE7=Darling Little Joe
TTITLE8=Happy Or Lonesome
TTITLE9=One Little Word
TTITLE10=Darling Daisies
TTITLE11=East Virginia Blues
TTITLE12=Lover's Return
TTITLE13=It'll Aggravate Your Soul
TTITLE14=Hello Central Give Me Heaven
TTITLE15=I'm Working On A Building
TTITLE16=You've Been Fooling Me Baby
TTITLE17=Longing For Old Virginia
TTITLE18=March Winds Gonna Blow My Blues All Away
TTITLE19=There'll Be Joy, Joy, Joy
TTITLE20=Home In Tennessee
TTITLE21=Are You Tired Of Me My Darling
TTITLE22=I Cannot Be Your Sweetheart
TTITLE23=My Heart's Tonight In Texas
TTITLE24=There's No Hiding Place Down Here
TTITLE25=Cowboy's Wild Song To His Herd
EXTD=Bear Family CD 15865 LK
EXTT0=17-JUN-1933, Camden
EXTT1=17-JUN-1933, Camden
EXTT2=17-JUN-1933, Camden
EXTT3=08-MAY-1934, Camden
EXTT4=08-MAY-1934, Camden
EXTT5=08-MAY-1934, Camden
EXTT6=08-MAY-1934, Camden
EXTT7=08-MAY-1934, Camden
EXTT8=08-MAY-1934, Camden
EXTT9=08-MAY-1934, Camden
EXTT10=08-MAY-1934, Camden
EXTT11=08-MAY-1934, Camden
EXTT12=08-MAY-1934, Camden
EXTT13=08-MAY-1934, Camden
EXTT14=08-MAY-1934, Camden
EXTT15=08-MAY-1934, Camden
EXTT16=08-MAY-1934, Camden
EXTT17=11-DEC-1934, Camden
EXTT18=11-DEC-1934, Camden
EXTT19=11-DEC-1934, Camden
EXTT20=11-DEC-1934, Camden
EXTT21=11-DEC-1934, Camden
EXTT22=11-DEC-1934, Camden
EXTT23=11-DEC-1934, Camden
EXTT24=11-DEC-1934, Camden
EXTT25=11-DEC-1934, Camden
PLAYORDER=
